:FULLY-SPECIFIED
:FORCE-ALL-JOINTS-BE-3DOF
:DEGREES
81
root 9.30835 16.3577 -25.5439 3.95413 -8.3221 2.6446
lfemur -16.8613 3.27848 -27.4398
ltibia 28.9797 0 0
lfoot -15.3539 9.50038 0
ltoes -3.40354 0 0
rfemur -21.7215 0.783171 17.6861
rtibia 61.7512 0 0
rfoot -14.1268 -13.0241 0
rtoes -10.0315 0 0
lowerback -4.87779 -0.859714 -3.97568
upperback -1.3352 -0.990365 2.42003
thorax 1.47416 -0.509426 4.67899
lowerneck -23.0762 -4.1616 -11.811
upperneck 19.6186 -4.69081 11.9983
head 10.7046 -1.60745 5.59801
lclavicle -2.01462e-14 -5.99167e-15 0
lhumerus -27.5143 -12.5005 87.1334
lradius 26.4019 0 0
lwrist 1.61793 0 0
lhand -8.25481 -22.3464 0
lfingers 7.12502 0 0
lthumb 17.6606 6.83489 0
rclavicle -2.01462e-14 -5.99167e-15 0
rhumerus -43.2823 13.5126 -89.0438
rradius 39.5484 0 0
rwrist -21.537 0 0
rhand -30.8363 -24.2955 0
rfingers 7.12502 0 0
rthumb -4.12503 -54.2349 0
82
root 9.31693 16.3566 -25.4334 3.902 -8.01036 2.70309
lfemur -16.1798 3.01655 -27.5553
ltibia 28.5812 0 0
lfoot -15.5364 9.52975 0
ltoes -3.43007 0 0
rfemur -22.635 0.966564 17.8226
rtibia 61.3438 0 0
rfoot -15.3212 -13.0266 0
rtoes -10.509 0 0
lowerback -4.926 -0.943328 -4.01269
upperback -1.27845 -1.09997 2.42257
thorax 1.57141 -0.567039 4.69498
lowerneck -23.0479 -4.1837 -11.8295
upperneck 19.7042 -4.7155 11.9564
head 10.733 -1.6262 5.58449
lclavicle -2.0182e-14 -5.62741e-15 0
lhumerus -26.8951 -12.9882 87.0952
lradius 26.8548 0 0
lwrist 2.02129 0 0
lhand -8.78445 -22.614 0
lfingers 7.12502 0 0
lthumb 17.1516 6.62168 0
rclavicle -2.0182e-14 -5.62741e-15 0
rhumerus -43.3322 13.5312 -88.9385
rradius 39.6992 0 0
rwrist -21.677 0 0
rhand -30.9058 -24.2471 0
rfingers 7.12502 0 0
rthumb -4.19212 -54.1853 0
83
root 9.32532 16.3559 -25.3212 3.853 -7.6976 2.76479
lfemur -15.474 2.77354 -27.6703
ltibia 28.1434 0 0
lfoot -15.7066 9.5346 0
ltoes -3.45591 0 0
rfemur -23.5181 1.15139 17.9116
rtibia 60.9007 0 0
rfoot -16.3898 -13.0087 0
rtoes -10.9414 0 0
lowerback -4.97965 -1.02469 -4.0499
upperback -1.22522 -1.20579 2.42102
thorax 1.66761 -0.622739 4.70638
lowerneck -23.0109 -4.20619 -11.8474
upperneck 19.7861 -4.74172 11.9145
head 10.7586 -1.64582 5.57045
lclavicle -1.99689e-14 -5.4195e-15 0
lhumerus -26.3242 -13.4734 87.0669
lradius 27.3119 0 0
lwrist 2.42168 0 0
lhand -9.28157 -22.8596 0
lfingers 7.12502 0 0
lthumb 16.6739 6.42651 0
rclavicle -1.99689e-14 -5.4195e-15 0
rhumerus -43.3813 13.5286 -88.8329
rradius 39.8078 0 0
rwrist -21.7892 0 0
rhand -30.9598 -24.1961 0
rfingers 7.12502 0 0
rthumb -4.24432 -54.1335 0
84
root 9.3336 16.3554 -25.2069 3.80723 -7.38535 2.83104
lfemur -14.7412 2.55211 -27.7862
ltibia 27.6631 0 0
lfoot -15.8646 9.51251 0
ltoes -3.481 0 0
rfemur -24.369 1.33601 17.9458
rtibia 60.4291 0 0
rfoot -17.314 -12.9703 0
rtoes -11.3174 0 0
lowerback -5.03852 -1.10338 -4.08808
upperback -1.1762 -1.30709 2.41468
thorax 1.7618 -0.67615 4.71286
lowerneck -22.9647 -4.22893 -11.8644
upperneck 19.8638 -4.76937 11.8725
head 10.781 -1.66626 5.55579
lclavicle -1.94825e-14 -5.39125e-15 0
lhumerus -25.8078 -13.9541 87.0489
lradius 27.7718 0 0
lwrist 2.81692 0 0
lhand -9.74186 -23.0799 0
lfingers 7.12502 0 0
lthumb 16.2315 6.25207 0
rclavicle -1.94825e-14 -5.39125e-15 0
rhumerus -43.4287 13.5012 -88.7269
rradius 39.8664 0 0
rwrist -21.869 0 0
rhand -30.9962 -24.1412 0
rfingers 7.12502 0 0
rthumb -4.27945 -54.0779 0
85
root 9.34185 16.3555 -25.0904 3.76477 -7.07516 2.90322
lfemur -13.9785 2.35489 -27.9044
ltibia 27.1369 0 0
lfoot -16.0104 9.46108 0
ltoes -3.5053 0 0
rfemur -25.1862 1.51882 17.9179
rtibia 59.9367 0 0
rfoot -18.0752 -12.9112 0
rtoes -11.6259 0 0
lowerback -5.1024 -1.17897 -4.12802
upperback -1.1321 -1.40317 2.40285
thorax 1.85304 -0.726898 4.71409
lowerneck -22.9087 -4.25176 -11.8803
upperneck 19.9369 -4.79835 11.8303
head 10.8001 -1.68749 5.54042
lclavicle -1.86982e-14 -5.56597e-15 0
lhumerus -25.3521 -14.428 87.0421
lradius 28.2328 0 0
lwrist 3.2048 0 0
lhand -10.161 -23.2719 0
lfingers 7.12502 0 0
lthumb 15.8286 6.10104 0
rclavicle -1.86982e-14 -5.56597e-15 0
rhumerus -43.4737 13.4457 -88.6201
rradius 39.8671 0 0
rwrist -21.9118 0 0
rhand -31.0127 -24.0807 0
rfingers 7.12502 0 0
rthumb -4.29536 -54.0172 0
86
root 9.34996 16.3558 -24.9725 3.7239 -6.75741 2.97566
lfemur -13.1812 2.17564 -28.0215
ltibia 26.5526 0 0
lfoot -16.1403 9.38091 0
ltoes -3.5249 0 0
rfemur -25.9683 1.71067 17.8419
rtibia 59.3541 0 0
rfoot -18.6983 -12.8104 0
rtoes -11.9004 0 0
lowerback -5.17726 -1.25229 -4.16349
upperback -1.08975 -1.49559 2.38592
thorax 1.94792 -0.775876 4.70688
lowerneck -22.8388 -4.27584 -11.8955
upperneck 20.0062 -4.8306 11.7877
head 10.8156 -1.71058 5.52405
lclavicle -1.75119e-14 -5.94933e-15 0
lhumerus -24.9379 -14.9164 87.0402
lradius 28.7187 0 0
lwrist 3.60735 0 0
lhand -10.5533 -23.4417 0
lfingers 7.12502 0 0
lthumb 15.4514 5.96799 0
rclavicle -1.75119e-14 -5.94933e-15 0
rhumerus -43.5183 13.368 -88.5151
rradius 39.8261 0 0
rwrist -21.925 0 0
rhand -31.0096 -24.0221 0
rfingers 7.12502 0 0
rthumb -4.29241 -53.9587 0
87
root 9.35777 16.3561 -24.8542 3.68314 -6.42259 3.04221
lfemur -12.3488 2.00617 -28.133
ltibia 25.9043 0 0
lfoot -16.2514 9.27538 0
ltoes -3.53674 0 0
rfemur -26.7161 1.92221 17.7378
rtibia 58.617 0 0
rfoot -19.2252 -12.6513 0
rtoes -12.1813 0 0
lowerback -5.26815 -1.3245 -4.18859
upperback -1.04575 -1.58647 2.36503
thorax 2.05284 -0.824247 4.68908
lowerneck -22.7522 -4.30226 -11.9105
upperneck 20.0727 -4.8678 11.7448
head 10.8276 -1.73644 5.50657
lclavicle -1.58699e-14 -6.51788e-15 0
lhumerus -24.5424 -15.4386 87.0376
lradius 29.2502 0 0
lwrist 4.04483 0 0
lhand -10.9355 -23.5982 0
lfingers 7.12502 0 0
lthumb 15.0837 5.84536 0
rclavicle -1.58699e-14 -6.51788e-15 0
rhumerus -43.5653 13.2768 -88.4141
rradius 39.7656 0 0
rwrist -21.9202 0 0
rhand -30.9901 -23.9731 0
rfingers 7.12502 0 0
rthumb -4.2735 -53.91 0
88
root 9.36524 16.3563 -24.7355 3.64293 -6.07234 3.10349
lfemur -11.485 1.84623 -28.2389
ltibia 25.1981 0 0
lfoot -16.345 9.14624 0
ltoes -3.54204 0 0
rfemur -27.4312 2.15147 17.6074
rtibia 57.7402 0 0
rfoot -19.6636 -12.4404 0
rtoes -12.4673 0 0
lowerback -5.37346 -1.3957 -4.20456
upperback -1.0005 -1.67592 2.34063
thorax 2.16658 -0.872043 4.66191
lowerneck -22.6505 -4.3308 -11.9254
upperneck 20.1365 -4.90945 11.7019
head 10.8365 -1.76478 5.48815
lclavicle -1.38229e-14 -7.25129e-15 0
lhumerus -24.1662 -15.9901 87.0356
lradius 29.8215 0 0
lwrist 4.51238 0 0
lhand -11.3067 -23.742 0
lfingers 7.12502 0 0
lthumb 14.7266 5.73262 0
rclavicle -1.38229e-14 -7.25129e-15 0
rhumerus -43.6144 13.1732 -88.3166
rradius 39.6869 0 0
rwrist -21.8989 0 0
rhand -30.9556 -23.9326 0
rfingers 7.12502 0 0
rthumb -4.24024 -53.8701 0
89
root 9.37234 16.3563 -24.6164 3.60371 -5.70831 3.16011
lfemur -10.5935 1.69557 -28.3391
ltibia 24.4404 0 0
lfoot -16.4219 8.99524 0
ltoes -3.542 0 0
rfemur -28.1153 2.39651 17.4523
rtibia 56.7385 0 0
rfoot -20.0207 -12.1842 0
rtoes -12.7575 0 0
lowerback -5.49156 -1.46597 -4.21264
upperback -0.954388 -1.76405 2.31316
thorax 2.28793 -0.919295 4.62657
lowerneck -22.5356 -4.36121 -11.9404
upperneck 20.1976 -4.95505 11.659
head 10.8424 -1.79533 5.46896
lclavicle -1.14218e-14 -8.12919e-15 0
lhumerus -23.8103 -16.5661 87.0355
lradius 30.4267 0 0
lwrist 5.00515 0 0
lhand -11.666 -23.8736 0
lfingers 7.12502 0 0
lthumb 14.3807 5.62926 0
rclavicle -1.14218e-14 -8.12919e-15 0
rhumerus -43.6659 13.0579 -88.2219
rradius 39.5914 0 0
rwrist -21.8625 0 0
rhand -30.908 -23.8995 0
rfingers 7.12502 0 0
rthumb -4.19425 -53.8378 0
90
root 9.37905 16.3561 -24.4969 3.56594 -5.33216 3.21267
lfemur -9.67793 1.55396 -28.4335
ltibia 23.6374 0 0
lfoot -16.4834 8.82413 0
ltoes -3.53783 0 0
rfemur -28.7702 2.65535 17.2742
rtibia 55.6267 0 0
rfoot -20.3041 -11.889 0
rtoes -13.0506 0 0
lowerback -5.62083 -1.5354 -4.21408
upperback -0.907801 -1.85094 2.28306
thorax 2.41566 -0.966035 4.58429
lowerneck -22.409 -4.39329 -11.9555
upperneck 20.2561 -5.00411 11.6162
head 10.8458 -1.82779 5.44916
lclavicle -8.71749e-15 -9.13125e-15 0
lhumerus -23.4753 -17.1621 87.0387
lradius 31.0601 0 0
lwrist 5.5183 0 0
lhand -12.0126 -23.9938 0
lfingers 7.12502 0 0
lthumb 14.0469 5.53476 0
rclavicle -8.71749e-15 -9.13125e-15 0
rhumerus -43.7196 12.9321 -88.1295
rradius 39.4806 0 0
rwrist -21.8126 0 0
rhand -30.8489 -23.8727 0
rfingers 7.12502 0 0
rthumb -4.13716 -53.812 0
